0
SECTION
2
HEADER
9
$INSUNITS
70
4
9
$ACADVER
1
AC1014
9
$HANDSEED
5
FFFF
0
ENDSEC
0
SECTION
2
TABLES
0
TABLE
2
VPORT
5
8
100
AcDbSymbolTable
0
ENDTAB
0
TABLE
2
LTYPE
5
5
100
AcDbSymbolTable
0
LTYPE
5
14
100
AcDbSymbolTableRecord
100
AcDbLinetypeTableRecord
2
BYBLOCK
70
0
0
LTYPE
5
15
100
AcDbSymbolTableRecord
100
AcDbLinetypeTableRecord
2
BYLAYER
70
0
0
ENDTAB
0
TABLE
2
LAYER
5
2
100
AcDbSymbolTable
70
2
0
LAYER
5
50
100
AcDbSymbolTableRecord
100
AcDbLayerTableRecord
2
0
70
0
6
CONTINUOUS
0
ENDTAB
0
TABLE
2
STYLE
5
3
100
AcDbSymbolTable
70
1
0
STYLE
5
11
100
AcDbSymbolTableRecord
100
AcDbTextStyleTableRecord
2
STANDARD
70
0
0
ENDTAB
0
TABLE
2
VIEW
5
6
100
AcDbSymbolTable
70
0
0
ENDTAB
0
TABLE
2
UCS
5
7
100
AcDbSymbolTable
70
0
0
ENDTAB
0
TABLE
2
APPID
5
9
100
AcDbSymbolTable
70
2
0
APPID
5
12
100
AcDbSymbolTableRecord
100
AcDbRegAppTableRecord
2
ACAD
70
0
0
ENDTAB
0
TABLE
2
DIMSTYLE
5
A
100
AcDbSymbolTable
70
1
0
ENDTAB
0
TABLE
2
BLOCK_RECORD
5
1
100
AcDbSymbolTable
70
1
0
BLOCK_RECORD
5
1F
100
AcDbSymbolTableRecord
100
AcDbBlockTableRecord
2
*MODEL_SPACE
0
BLOCK_RECORD
5
1B
100
AcDbSymbolTableRecord
100
AcDbBlockTableRecord
2
*PAPER_SPACE
0
ENDTAB
0
ENDSEC
0
SECTION
2
BLOCKS
0
BLOCK
5
20
100
AcDbEntity
100
AcDbBlockBegin
2
*MODEL_SPACE
0
ENDBLK
5
21
100
AcDbEntity
100
AcDbBlockEnd
0
BLOCK
5
1C
100
AcDbEntity
100
AcDbBlockBegin
2
*PAPER_SPACE
0
ENDBLK
5
1D
100
AcDbEntity
100
AcDbBlockEnd
0
ENDSEC
0
SECTION
2
ENTITIES
0
CIRCLE
5
100
100
AcDbEntity
8
0
100
AcDbCircle
10
-15.269726124989285
20
-5.8076347921510401
30
0
40
1.1999999999999988
210
0
220
-0
230
1
0
CIRCLE
5
101
100
AcDbEntity
8
0
100
AcDbCircle
10
-79.944726108320509
20
94.01163194895453
30
0
40
1.2000000000000011
210
0
220
-0
230
1
0
CIRCLE
5
102
100
AcDbEntity
8
0
100
AcDbCircle
10
-103.94472610355804
20
-8.1887125367815017
30
0
40
1.1999999999999922
210
0
220
-0
230
1
0
CIRCLE
5
103
100
AcDbEntity
8
0
100
AcDbCircle
10
-16.744726124989285
20
77.342365188798951
30
0
40
1.2000000000000011
210
0
220
-0
230
1
0
LWPOLYLINE
5
104
100
AcDbEntity
8
0
100
AcDbPolyline
90
4
70
1
43
0.0
10
-0.2196085661019076
20
38.292325102144659
10
-0.2196085661019076
20
52.292325098644952
10
-14.219708562602111
20
52.292325098644952
10
-14.219708562602111
20
38.292325102144659
0
LWPOLYLINE
5
105
100
AcDbEntity
8
0
100
AcDbPolyline
90
4
70
1
43
0.0
10
-52.319705861596262
20
33.530325718772964
10
-38.319605865096065
20
33.530325718772964
10
-38.319605865096065
20
47.530325715273349
10
-52.319705861596262
20
47.530325715273349
0
LWPOLYLINE
5
106
100
AcDbEntity
8
0
100
AcDbPolyline
90
4
70
1
43
0.0
10
-95.46960114071743
20
16.861327770267067
10
-95.46960114071743
20
30.861327766767062
10
-109.46970113721703
20
30.861327766767062
10
-109.46970113721703
20
16.861327770267067
0
LWPOLYLINE
5
107
100
AcDbEntity
8
0
100
AcDbPolyline
90
4
70
1
43
0.0
10
-57.369604514593163
20
7.0493287245926339
10
-71.369704511093047
20
7.0493287245926339
10
-71.369704511093047
20
-6.9506712719070407
10
-57.369604514593163
20
-6.9506712719070407
0
LWPOLYLINE
5
108
100
AcDbEntity
8
0
100
AcDbPolyline
90
4
70
1
43
0.0
10
-14.219708504486954
20
33.242326449147569
10
-14.219708504486954
20
19.242326452647553
10
-0.21960850798707909
20
19.242326452647553
10
-0.21960850798707909
20
33.242326449147569
0
LWPOLYLINE
5
109
100
AcDbEntity
8
0
100
AcDbPolyline
90
4
70
1
43
0.0
10
-109.46970113721703
20
68.961322374280641
10
-109.46970113721703
20
54.961322377780647
10
-95.46960114071743
20
54.961322377780647
10
-95.46960114071743
20
68.961322374280641
0
LWPOLYLINE
5
110
100
AcDbEntity
8
0
100
AcDbPolyline
90
4
70
1
43
0.0
10
-0.2196085661019076
20
57.342327788862647
10
-0.2196085661019076
20
71.342327785363352
10
-14.219708562602111
20
71.342327785363352
10
-14.219708562602111
20
57.342327788862647
0
LWPOLYLINE
5
111
100
AcDbEntity
8
0
100
AcDbPolyline
90
4
70
1
43
0.0
10
-19.269607215599322
20
57.34232509738186
10
-19.269607215599322
20
71.342325093882437
10
-33.269707212099178
20
71.342325093882437
10
-33.269707212099178
20
57.34232509738186
0
LWPOLYLINE
5
112
100
AcDbEntity
8
0
100
AcDbPolyline
90
4
70
1
43
0.0
10
-33.269705866358763
20
38.292325102144659
10
-19.269605869858566
20
38.292325102144659
10
-19.269605869858566
20
52.292325098644952
10
-33.269705866358763
20
52.292325098644952
0
LWPOLYLINE
5
113
100
AcDbEntity
8
0
100
AcDbPolyline
90
4
70
1
43
0.0
10
-99.944703831079025
20
90.396445746298028
10
-99.944703831079025
20
76.396445749797337
10
-85.944603834579539
20
76.396445749797337
10
-85.944603834579539
20
90.396445746298028
0
LWPOLYLINE
5
114
100
AcDbEntity
8
0
100
AcDbPolyline
90
4
70
1
43
0.0
10
-14.219708504486954
20
14.192327631432953
10
-14.219708504486954
20
0.19232763493295835
10
-0.21960850798707909
20
0.19232763493295835
10
-0.21960850798707909
20
14.192327631432953
0
LWPOLYLINE
5
115
100
AcDbEntity
8
0
100
AcDbPolyline
90
4
70
1
43
0.0
10
-38.319605865096065
20
52.580325714010158
10
-38.319605865096065
20
66.580325710510834
10
-52.319705861596262
20
66.580325710510834
10
-52.319705861596262
20
52.580325714010158
0
LWPOLYLINE
5
116
100
AcDbEntity
8
0
100
AcDbPolyline
90
4
70
1
43
0.0
10
-19.269605869858566
20
33.242326449147569
10
-33.269705866358763
20
33.242326449147569
10
-33.269705866358763
20
19.242326452647553
10
-19.269605869858566
20
19.242326452647553
0
LWPOLYLINE
5
117
100
AcDbEntity
8
0
100
AcDbPolyline
90
4
70
1
43
0.0
10
-38.319605865096065
20
14.480328415016253
10
-38.319605865096065
20
28.480328411516336
10
-52.319705861596262
20
28.480328411516336
10
-52.319705861596262
20
14.480328415016253
0
LWPOLYLINE
5
118
100
AcDbEntity
8
0
100
AcDbPolyline
90
12
70
1
43
0.0
10
-121.32268430346302
20
65.555759257960844
10
-120.77918721503936
20
66.497130552843913
10
-119.04714046103477
20
65.497123531897458
10
-115.5471158877222
20
71.559287170913493
10
-117.27916264172678
20
72.559294191859948
10
-108.84118813838271
20
87.174399136473184
10
-107.10912709155183
20
86.174416871604862
10
-103.60918916451274
20
92.236630535512916
10
-105.34125021134361
20
93.236612800381238
10
-104.79763430723131
20
94.177915497484449
10
-116.92207655951351
20
101.17791549609736
10
-133.44712655574531
20
72.555759256574447
0
LWPOLYLINE
5
119
100
AcDbEntity
8
0
100
AcDbPolyline
90
4
70
1
43
0.0
10
-66.894605857952314
20
88.011324051693705
10
-80.894705854452212
20
88.011324051693705
10
-80.894705854452212
20
74.011324055193057
10
-66.894605857952314
20
74.011324055193057
0
LWPOLYLINE
5
120
100
AcDbEntity
8
0
100
AcDbPolyline
90
4
70
1
43
0.0
10
-71.369704511093047
20
50.199325349454057
10
-57.369604514593163
20
50.199325349454057
10
-57.369604514593163
20
64.199325345954747
10
-71.369704511093047
20
64.199325345954747
0
LWPOLYLINE
5
121
100
AcDbEntity
8
0
100
AcDbPolyline
90
4
70
1
43
0.0
10
-95.469601224826221
20
35.911326419764151
10
-95.469601224826221
20
49.911326416264444
10
-109.46970122132571
20
49.911326416264444
10
-109.46970122132571
20
35.911326419764151
0
LWPOLYLINE
5
122
100
AcDbEntity
8
0
100
AcDbPolyline
90
4
70
1
43
0.0
10
-33.269705866358763
20
0.19232780315018516
10
-19.269605869858566
20
0.19232780315018516
10
-19.269605869858566
20
14.192327799650499
10
-33.269705866358763
20
14.192327799650499
0
LWPOLYLINE
5
123
100
AcDbEntity
8
0
100
AcDbPolyline
90
4
70
1
43
0.0
10
-71.369704847528112
20
12.099327377589724
10
-57.369604851028555
20
12.099327377589724
10
-57.369604851028555
20
26.099327374090073
10
-71.369704847528112
20
26.099327374090073
0
LWPOLYLINE
5
124
100
AcDbEntity
8
0
100
AcDbPolyline
90
4
70
1
43
0.0
10
-95.46960114071743
20
-2.1886712156648258
10
-95.46960114071743
20
11.811328780834849
10
-109.46970113721703
20
11.811328780834849
10
-109.46970113721703
20
-2.1886712156648258
0
LWPOLYLINE
5
125
100
AcDbEntity
8
0
100
AcDbPolyline
90
4
70
1
43
0.0
10
-76.419603500525625
20
66.580325710510834
10
-90.419703497025822
20
66.580325710510834
10
-90.419703497025822
20
52.580325714010158
10
-76.419603500525625
20
52.580325714010158
0
LWPOLYLINE
5
126
100
AcDbEntity
8
0
100
AcDbPolyline
90
4
70
1
43
0.0
10
-76.419603164090532
20
-4.569671664329924
10
-76.419603164090532
20
9.4303283321697151
10
-90.419703160590132
20
9.4303283321697151
10
-90.419703160590132
20
-4.569671664329924
0
LWPOLYLINE
5
127
100
AcDbEntity
8
0
100
AcDbPolyline
90
4
70
1
43
0.0
10
-38.319604855790431
20
9.4303284162788259
10
-52.319704852290947
20
9.4303284162788259
10
-52.319704852290947
20
-4.5696715802212751
10
-38.319604855790431
20
-4.5696715802212751
0
LWPOLYLINE
5
128
100
AcDbEntity
8
0
100
AcDbPolyline
90
4
70
1
43
0.0
10
-76.419603164090532
20
28.480328411516336
10
-90.419703160590132
20
28.480328411516336
10
-90.419703160590132
20
14.480328415016253
10
-76.419603164090532
20
14.480328415016253
0
LWPOLYLINE
5
129
100
AcDbEntity
8
0
100
AcDbPolyline
90
4
70
1
43
0.0
10
-71.369704891569214
20
31.149327162555558
10
-57.369604895069358
20
31.149327162555558
10
-57.369604895069358
20
45.149327159055659
10
-71.369704891569214
20
45.149327159055659
0
LWPOLYLINE
5
130
100
AcDbEntity
8
0
100
AcDbPolyline
90
4
70
1
43
0.0
10
-76.419603164090532
20
47.530325715273349
10
-90.419703160590132
20
47.530325715273349
10
-90.419703160590132
20
33.530325718772964
10
-76.419603164090532
20
33.530325718772964
0
LWPOLYLINE
5
131
100
AcDbEntity
8
0
100
AcDbPolyline
90
53
70
1
43
0.0
10
-92.762058410915358
20
-8.569618026637686
42
-0.29679764110560175
10
-94.590892258427345
20
-7.3791652817095894
42
0.2967976411056053
10
-96.419726105939333
20
-6.1887125367814999
10
-98.744726103558037
20
-6.1887125367814999
42
0.41421356237309392
10
-100.74472610355804
20
-8.1887125367815017
42
-0.99999999999999989
10
-107.14472610355804
20
-8.1887125367815017
42
0.41421356237309537
10
-109.14472610355803
20
-6.1887125367814999
10
-111.4697261011768
20
-6.1887125367814928
42
-0.41421356237309537
10
-113.4697261011768
20
-4.1887125367814981
10
-113.4697261011768
20
55.248450185251926
42
0.26795131316745918
10
-114.46973980985602
20
56.980508907458123
10
-121.13583297342244
20
60.829109243456259
10
-137.17937777310252
20
70.091610582418298
42
-0.41421784220363028
10
-137.91144507678518
20
72.823678363558713
10
-119.38611236374794
20
104.91025681429215
42
-0.41421916652058172
10
-116.65402605440988
20
105.6422796746422
10
-100.61116347095903
20
96.3794503564894
10
-97.641039595134217
20
94.664626348755945
42
0.13165392259173161
10
-96.641029890634442
20
94.39667155339302
10
-84.565503757727569
20
94.39667155339302
42
0.28061295990382901
10
-82.788281584878689
20
95.479348628608989
42
-0.78621069549573463
10
-76.744726108320521
20
94.011631948954516
42
0.41421356237309243
10
-74.744726108320521
20
92.011631948954545
10
-64.894726113083024
20
92.011631948954545
42
-0.41421356237309509
10
-62.894726113083038
20
90.011631948954545
10
-62.894726113083024
20
72.580381954312344
42
0.41421356237309509
10
-60.894726113083024
20
70.580381954312344
10
-39.269726120226792
20
70.580381954312344
42
0.41421356237309509
10
-37.269726120226792
20
72.580381954312344
10
-37.269726120226778
20
73.342365188798937
42
-0.41421356237309243
10
-35.269726120226785
20
75.342365188798937
10
-21.944726124989291
20
75.342365188798951
42
0.41421356237309509
10
-19.944726124989288
20
77.342365188798951
42
-0.99999999999999989
10
-13.544726124989285
20
77.342365188798951
42
0.41421356237309509
10
-11.544726124989285
20
75.342365188798937
10
1.7802738702482124
20
75.342365188798951
42
-0.41421356237309304
10
3.7802738702482142
20
73.342365188798937
10
3.7802738702482142
20
-1.8076347921510385
42
-0.41421356237309548
10
1.7802738702482124
20
-3.8076347921510401
10
-10.069726124989273
20
-3.8076347921510418
42
0.41421356237309581
10
-12.069726124989286
20
-5.8076347921510374
42
-0.99999999999999989
10
-18.469726124989283
20
-5.8076347921510418
42
0.4142135623730952
10
-20.469726124989283
20
-3.8076347921510401
10
-32.31972612022679
20
-3.8076347921510401
42
0.4142135623730952
10
-34.319726120226782
20
-5.8076347921510418
10
-34.31972612022679
20
-6.5696180266376736
42
-0.4142135623730947
10
-36.31972612022679
20
-8.5696180266376754
10
-51.36972611546426
20
-8.5696180266376736
42
0.29681045167332543
10
-53.19859808549586
20
-9.7601568989528538
42
-0.29681045167332243
10
-55.027470055527431
20
-10.950695771268029
10
-73.711982170638635
20
-10.950695771268029
42
-0.29681045167332487
10
-75.54085414067022
20
-9.760156898952852
42
0.29681045167332504
10
-77.369726110701805
20
-8.5696180266376754
0
ENDSEC
0
SECTION
2
OBJECTS
0
DICTIONARY
5
C
100
AcDbDictionary
3
ACAD_GROUP
350
D
3
ACAD_MLINESTYLE
350
17
0
DICTIONARY
5
D
100
AcDbDictionary
0
DICTIONARY
5
1A
330
C
100
AcDbDictionary
0
DICTIONARY
5
17
100
AcDbDictionary
0
ENDSEC
0
EOF
